<?xml version="1.0" encoding="UTF-8"?>
<svg width="512" height="512" viewBox="0 0 512 512" xmlns="http://www.w3.org/2000/svg">
  <defs>
    <linearGradient id="gradient" x1="0%" y1="0%" x2="100%" y2="100%">
      <stop offset="0%" style="stop-color:#C53030;stop-opacity:1" />
      <stop offset="100%" style="stop-color:#E53E3E;stop-opacity:1" />
    </linearGradient>
  </defs>
  
  <!-- Globe -->
  <circle cx="180" cy="180" r="140" fill="none" stroke="url(#gradient)" stroke-width="20"/>
  
  <!-- Vertical lines -->
  <path d="M 180 40 Q 180 180 180 320" fill="none" stroke="url(#gradient)" stroke-width="12"/>
  <path d="M 120 80 Q 150 180 120 280" fill="none" stroke="url(#gradient)" stroke-width="12"/>
  <path d="M 240 80 Q 210 180 240 280" fill="none" stroke="url(#gradient)" stroke-width="12"/>
  
  <!-- Horizontal lines -->
  <path d="M 60 120 Q 180 120 300 120" fill="none" stroke="url(#gradient)" stroke-width="12"/>
  <path d="M 60 180 Q 180 180 300 180" fill="none" stroke="url(#gradient)" stroke-width="12"/>
  <path d="M 60 240 Q 180 240 300 240" fill="none" stroke="url(#gradient)" stroke-width="12"/>
  
  <!-- Monitor -->
  <rect x="240" y="280" width="240" height="150" rx="20" ry="20" fill="none" stroke="url(#gradient)" stroke-width="16"/>
  <rect x="260" y="300" width="200" height="110" rx="8" ry="8" fill="none" stroke="url(#gradient)" stroke-width="8"/>
  
  <!-- Monitor stand -->
  <rect x="340" y="430" width="40" height="40" fill="url(#gradient)"/>
  <rect x="320" y="460" width="80" height="16" rx="8" ry="8" fill="url(#gradient)"/>
  
  <!-- Connection line -->
  <path d="M 220 260 Q 240 270 260 280" fill="none" stroke="url(#gradient)" stroke-width="8"/>
</svg>
